<svg width="105" height="25" viewBox="0 0 105 25" fill="none" xmlns="http://www.w3.org/2000/svg">
<g id="cc-logo" clip-path="url(#clip0_110_5350)">
<path id="Vector" fill-rule="evenodd" clip-rule="evenodd" d="M32.6671 16.9684C31.7108 15.2412 30.0823 14.5503 28.187 14.5503C25.4324 14.5503 23.2391 16.4952 23.2391 19.7838C23.2391 23.1277 25.3181 25.0139 28.2806 25.0139C29.1898 25.0129 30.0819 24.768 30.8635 24.3049C31.6451 23.8417 32.2872 23.1774 32.7225 22.3816L30.6436 21.3176C30.1724 22.4368 29.4621 22.7719 28.5647 22.7719C27.0089 22.7719 26.2986 21.4834 26.2986 19.7838C26.2986 18.0842 26.8981 16.7957 28.5647 16.7957C28.9752 16.8192 29.3703 16.96 29.7027 17.2013C30.0351 17.4427 30.2908 17.7744 30.4392 18.1568L32.6671 16.9684Z" fill="#7C7D82"/>
<path id="Vector_2" fill-rule="evenodd" clip-rule="evenodd" d="M38.0272 16.782C39.6938 16.782 40.4075 18.0705 40.4075 19.6596C40.4075 21.4697 39.6938 22.7686 38.0272 22.7686C36.3605 22.7686 35.6468 21.4801 35.6468 19.7805C35.6468 18.0809 36.3571 16.782 38.0272 16.782ZM38.0272 14.5366C34.9088 14.5366 32.7224 16.4262 32.7224 19.7701C32.7224 23.1141 34.9157 25.0002 38.0272 25.0002C41.1386 25.0002 43.3284 23.1141 43.3284 19.7701C43.3284 16.4262 41.1386 14.5366 38.0272 14.5366Z" fill="#7C7D82"/>
<path id="Vector_3" fill-rule="evenodd" clip-rule="evenodd" d="M43.9277 24.7409H46.8521V18.554C46.8521 17.6593 47.2263 16.8924 48.4078 16.8924C49.5339 16.8924 49.8319 17.5453 49.8319 18.5194V24.7375H52.7563V18.63C52.7563 17.6213 53.2621 16.9027 54.2358 16.9027C55.3411 16.9027 55.7361 17.5384 55.7361 18.9409V24.7409H58.6604V17.1411C58.6604 14.8612 56.5607 14.5226 55.5871 14.5226C54.9896 14.5083 54.3957 14.6189 53.8436 14.8474C53.2916 15.0759 52.7937 15.4171 52.3821 15.8491C52.0876 15.4254 51.6914 15.082 51.2296 14.8503C50.7678 14.6186 50.2551 14.5059 49.7384 14.5226C48.8375 14.5226 47.6005 14.7852 46.8521 15.6626V14.799H43.9277V24.7409Z" fill="#7C7D82"/>
<path id="Vector_4" fill-rule="evenodd" clip-rule="evenodd" d="M59.5962 24.741H62.5171V18.554C62.5171 17.6593 62.8948 16.8924 64.0728 16.8924C65.2509 16.8924 65.4865 17.5453 65.4865 18.5195V24.7375H68.4109V18.63C68.4109 17.6213 68.9167 16.9028 69.8938 16.9028C70.9991 16.9028 71.3907 17.5384 71.3907 18.9409V24.741H74.315V17.1412C74.315 14.8612 72.2153 14.5227 71.2417 14.5227C70.6442 14.5086 70.0504 14.6193 69.4984 14.8478C68.9464 15.0762 68.4485 15.4174 68.0367 15.8492C67.7425 15.4253 67.3463 15.0817 66.8844 14.8499C66.4225 14.6182 65.9097 14.5057 65.3929 14.5227C64.4955 14.5227 63.2586 14.7852 62.5067 15.6627V14.799H59.5962V24.741Z" fill="#7C7D82"/>
<path id="Vector_5" fill-rule="evenodd" clip-rule="evenodd" d="M80.2261 16.782C81.8962 16.782 82.6065 18.0705 82.6065 19.6596C82.6065 21.4697 81.9135 22.7686 80.2261 22.7686C78.5387 22.7686 77.8457 21.4801 77.8457 19.7805C77.8457 18.0809 78.5595 16.782 80.2261 16.782ZM80.2261 14.5366C77.1077 14.5366 74.9248 16.4262 74.9248 19.7701C74.9248 23.1141 77.1146 25.0002 80.2261 25.0002C83.3376 25.0002 85.5308 23.1141 85.5308 19.7701C85.5308 16.4262 83.3376 14.5366 80.2261 14.5366Z" fill="#7C7D82"/>
<path id="Vector_6" fill-rule="evenodd" clip-rule="evenodd" d="M86.3174 24.7411H89.2418V18.5542C89.2418 17.6595 89.616 16.8926 90.7975 16.8926C91.9201 16.8926 92.2216 17.5455 92.2216 18.5196V24.7377H95.1459V17.3969C95.1459 15.9011 94.4876 14.5366 92.128 14.5366C91.2271 14.5366 89.9902 14.7992 89.2418 15.6766V14.7992H86.3174V24.7411Z" fill="#7C7D82"/>
<path id="Vector_7" fill-rule="evenodd" clip-rule="evenodd" d="M104.907 15.9771C103.614 15.0739 102.081 14.5726 100.503 14.5366C98.4792 14.5366 96.286 15.5108 96.286 18.0153C96.286 21.5457 102.176 20.3125 102.176 21.8636C102.176 22.7583 101.071 22.8723 100.582 22.8723C99.2519 22.8723 98.3337 22.3299 97.4363 21.4697L95.6311 23.0415C97.0933 24.3853 98.3303 25.0002 100.503 25.0002C102.675 25.0002 105.007 24.0675 105.007 21.4525C105.007 17.732 99.1168 19.1345 99.1168 17.4349C99.1168 16.9306 99.64 16.668 100.371 16.668C101.289 16.668 102.544 17.0411 103.126 17.732L104.907 15.9771Z" fill="#7C7D82"/>
<path id="Vector_8" fill-rule="evenodd" clip-rule="evenodd" d="M32.6671 5.52702C31.7108 3.79978 30.0823 3.10889 28.187 3.10889C25.4324 3.10889 23.2391 5.04339 23.2391 8.33204C23.2391 11.6794 25.3181 13.5656 28.2806 13.5656C29.19 13.5639 30.0823 13.3183 30.8638 12.8546C31.6454 12.3909 32.2874 11.726 32.7225 10.9298L30.6436 9.86583C30.1724 10.9885 29.4621 11.3236 28.5647 11.3236C27.0089 11.3236 26.2986 10.0351 26.2986 8.33204C26.2986 6.62899 26.8981 5.34393 28.5647 5.34393C28.9777 5.36867 29.3747 5.51239 29.7075 5.75767C30.0402 6.00295 30.2944 6.33923 30.4392 6.72572L32.6671 5.52702Z" fill="#7C7D82"/>
<path id="Vector_9" fill-rule="evenodd" clip-rule="evenodd" d="M33.3807 13.3034H36.3051V7.54827C36.3051 6.44629 36.9981 6.14921 38.7305 5.94194L39.0493 5.90394V3.3269C38.0485 3.36823 37.0881 3.73184 36.312 4.36325V3.3649H33.3807V13.3034Z" fill="#7C7D82"/>
<path id="Vector_10" fill-rule="evenodd" clip-rule="evenodd" d="M48.9898 8.92967C48.969 5.87246 47.732 3.10889 44.0974 3.10889C41.0621 3.10889 39.205 5.1263 39.205 8.63604C39.205 11.4376 41.0032 13.569 44.0974 13.569C46.3288 13.569 47.9088 12.6916 48.9482 10.8054L46.7376 9.67238C45.8957 10.8676 45.3898 11.4273 44.3122 11.4273C43.3767 11.4273 42.157 10.8296 42.1397 8.92276L48.9898 8.92967ZM42.0912 7.1368C42.1184 6.62769 42.3386 6.14788 42.7072 5.7945C43.0758 5.44112 43.5653 5.24055 44.0766 5.23339C44.3362 5.21667 44.5964 5.25371 44.841 5.34217C45.0855 5.43063 45.309 5.56859 45.4975 5.74738C45.6859 5.92617 45.8352 6.14192 45.9359 6.38104C46.0367 6.62016 46.0866 6.87748 46.0828 7.1368H42.0912Z" fill="#7C7D82"/>
<path id="Vector_11" fill-rule="evenodd" clip-rule="evenodd" d="M55.6948 9.15421C55.6948 10.6707 54.832 11.4342 53.6886 11.4342C52.9956 11.4342 52.3234 11.0887 52.3234 10.3149C52.3234 9.54111 52.9956 9.23021 53.7267 9.02639L55.6948 8.46332V9.15421ZM58.5083 5.97955C58.4875 3.7376 56.7828 3.10889 54.0524 3.10889C52.7011 3.10889 50.0401 3.37143 49.9465 6.21791H52.7566C52.909 5.22993 53.356 4.89139 54.295 4.89139C55.0815 4.89139 55.6809 5.2092 55.6809 5.95537V6.77753L54.6137 6.92953C51.426 7.37861 49.4961 8.21805 49.4961 10.6085C49.4961 12.5154 50.9202 13.5621 52.8328 13.5621C53.8722 13.5621 55.3448 13.0578 55.8299 12.2736H55.868C55.8857 12.6256 55.9485 12.9739 56.0551 13.3099H58.7543C58.5441 12.6401 58.4561 11.9381 58.4944 11.2373L58.5083 5.97955Z" fill="#7C7D82"/>
<path id="Vector_12" fill-rule="evenodd" clip-rule="evenodd" d="M65.3825 3.55122H63.6501V0.690918H60.7257V3.56849H59.3016V5.36136H60.7257V10.5776C60.7257 12.0147 61.0722 13.5657 63.5738 13.5657C64.2114 13.5657 65.0741 13.4897 65.4484 13.4517V11.1545C65.1562 11.1889 64.8624 11.2073 64.5683 11.2098C64.0416 11.2098 63.6501 11.006 63.6501 10.2218V5.34409H65.3825V3.55122Z" fill="#7C7D82"/>
<path id="Vector_13" fill-rule="evenodd" clip-rule="evenodd" d="M66.4841 3.36465V13.3032H69.405V3.36465H66.4841ZM69.405 2.24195V0H66.4841V2.24195H69.405Z" fill="#7C7D82"/>
<path id="Vector_14" fill-rule="evenodd" clip-rule="evenodd" d="M73.3415 13.303H76.2832L79.6961 3.3645H76.5846L74.8591 10.3874H74.821L73.0989 3.3645H69.9667L73.3415 13.303Z" fill="#7C7D82"/>
<path id="Vector_15" fill-rule="evenodd" clip-rule="evenodd" d="M89.1376 8.92967C89.1168 5.87246 87.8798 3.10889 84.2452 3.10889C81.2099 3.10889 79.3458 5.11939 79.3458 8.63604C79.3458 11.4376 81.1441 13.569 84.2382 13.569C86.4696 13.569 88.0496 12.6916 89.0718 10.8054L86.8889 9.67238C86.0435 10.8676 85.5376 11.4273 84.4635 11.4273C83.5279 11.4273 82.3083 10.8296 82.291 8.92276L89.1376 8.92967ZM82.239 7.1368C82.2662 6.62769 82.4864 6.14788 82.855 5.7945C83.2236 5.44112 83.7131 5.24055 84.2244 5.23339C84.4826 5.21914 84.7409 5.25801 84.9834 5.34759C85.2259 5.43716 85.4473 5.57551 85.6338 5.75405C85.8204 5.93258 85.9681 6.14747 86.0678 6.38535C86.1674 6.62323 86.217 6.87902 86.2132 7.1368H82.239Z" fill="#7C7D82"/>
<path id="Vector_16" fill-rule="evenodd" clip-rule="evenodd" d="M10.9492 2.93672C9.51669 2.91777 8.09536 3.18978 6.77174 3.73616C5.44812 4.28255 4.24994 5.09187 3.25017 6.11483C1.178 8.1735 0.00921551 10.9674 0.000101438 13.8839C-0.00613709 15.3177 0.27544 16.7382 0.828251 18.0617C1.38106 19.3853 2.19393 20.5853 3.21898 21.5909C4.22812 22.6141 5.43116 23.4272 6.7582 23.9828C8.08525 24.5385 9.50982 24.8257 10.9492 24.8277C13.897 24.8174 16.7204 23.6422 18.8006 21.5598C19.8136 20.5568 20.6122 19.3595 21.1482 18.0402C21.6842 16.721 21.9464 15.3071 21.919 13.8839C21.9319 12.4436 21.6571 11.0151 21.1105 9.68182C20.5639 8.3485 19.7565 7.13702 18.7354 6.11804C17.7144 5.09905 16.5 4.29296 15.1632 3.74676C13.8263 3.20056 12.3938 2.92519 10.9492 2.93672ZM10.9803 4.91613C12.1624 4.91197 13.3336 5.14178 14.4259 5.59223C15.5183 6.04269 16.5101 6.70483 17.3439 7.54027C18.1776 8.37572 18.8368 9.36785 19.2831 10.4592C19.7295 11.5505 19.9541 12.7192 19.944 13.8977C19.9678 15.0607 19.7532 16.2164 19.3136 17.2938C18.8739 18.3713 18.2183 19.348 17.3869 20.1642C15.6884 21.862 13.3856 22.8219 10.9803 22.8345C9.80443 22.8348 8.64024 22.6016 7.55573 22.1485C6.47122 21.6954 5.48812 21.0314 4.66384 20.1952C3.82178 19.3715 3.15159 18.3897 2.69191 17.3065C2.23222 16.2233 1.99213 15.0601 1.98548 13.8839C2.00091 11.4946 2.96375 9.20836 4.66384 7.52425C5.48266 6.68305 6.46541 6.01774 7.55167 5.56921C8.63793 5.12069 9.80473 4.89844 10.9803 4.91613Z" fill="#7C7D82"/>
<path id="Vector_17" fill-rule="evenodd" clip-rule="evenodd" d="M10.838 12.063C10.2178 10.9369 9.16098 10.4878 7.93095 10.4878C6.14306 10.4878 4.71899 11.7487 4.71899 13.8835C4.71899 16.0184 6.05991 17.2724 7.99331 17.2724C8.58345 17.2712 9.16241 17.1118 9.66957 16.811C10.1767 16.5101 10.5935 16.0789 10.8761 15.5624L9.51094 14.8715C9.42624 15.1577 9.247 15.4069 9.00233 15.5788C8.75765 15.7506 8.4619 15.8349 8.16309 15.818C7.15135 15.818 6.69052 14.9821 6.69052 13.8801C6.69052 12.7781 7.07858 11.9387 8.16309 11.9387C8.42972 11.9536 8.68634 12.045 8.9021 12.2019C9.11785 12.3588 9.28355 12.5745 9.37927 12.823L10.838 12.063Z" fill="#7C7D82"/>
<path id="Vector_18" fill-rule="evenodd" clip-rule="evenodd" d="M17.1722 12.063C16.552 10.9369 15.4952 10.4878 14.2652 10.4878C12.4738 10.4878 11.0532 11.7452 11.0532 13.8835C11.0532 16.0219 12.3941 17.2724 14.3275 17.2724C14.9177 17.2712 15.4966 17.1118 16.0038 16.811C16.511 16.5101 16.9277 16.0789 17.2103 15.5624L15.8486 14.8715C15.7627 15.1576 15.5827 15.4066 15.3376 15.5783C15.0924 15.75 14.7965 15.8345 14.4973 15.818C13.489 15.818 13.0247 14.9821 13.0247 13.8801C13.0247 12.7781 13.4128 11.9387 14.4973 11.9387C14.7639 11.9536 15.0206 12.045 15.2363 12.2019C15.4521 12.3588 15.6178 12.5745 15.7135 12.823L17.1722 12.063Z" fill="#7C7D82"/>
</g>
<defs>
<clipPath id="clip0_110_5350">
<rect width="105" height="25" fill="white"/>
</clipPath>
</defs>
</svg>
